<svg width="153" height="9" fill="none" xmlns="http://www.w3.org/2000/svg"><path d="M.957.245h.902V8H.957V.245zm6.125 7.843c-.733 0-1.37-.158-1.914-.473A3.213 3.213 0 013.914 6.24c-.286-.601-.429-1.309-.429-2.123 0-.814.143-1.518.43-2.112A3.144 3.144 0 015.167.641C5.711.318 6.35.157 7.082.157c.536 0 1.027.084 1.474.253.448.161.836.403 1.166.726l-.34.693c-.375-.315-.741-.543-1.1-.682a3.26 3.26 0 00-1.19-.209c-.85 0-1.51.279-1.98.836-.462.55-.693 1.331-.693 2.343 0 1.02.231 1.808.693 2.365.47.55 1.13.825 1.98.825.433 0 .83-.07 1.188-.209.36-.14.726-.367 1.1-.682l.341.693c-.33.323-.718.568-1.166.737a4.316 4.316 0 01-1.474.242zM13.777.245h1.056l-.22 3.047h-.594L13.777.245zm2.2 0h1.056l-.22 3.047h-.594L15.977.245zM24.787 8h-.99l-1.32-2.486c-.162-.3-.352-.506-.572-.616-.213-.117-.506-.176-.88-.176h-1.452V8h-.891V.245h3.19c.843 0 1.485.187 1.925.561.447.374.67.924.67 1.65 0 .601-.172 1.089-.516 1.463-.338.367-.822.598-1.452.693.198.059.37.158.517.297.154.14.293.326.418.561L24.787 8zm-2.992-4.026c.6 0 1.048-.125 1.342-.374.3-.25.45-.627.45-1.133 0-.499-.146-.869-.44-1.111-.293-.242-.744-.363-1.352-.363h-2.222v2.981h2.222zM26.223.245h4.906v.748h-4.015v2.695h3.795v.748h-3.795v2.816h4.015V8h-4.906V.245zm6.402 0h3.069c.814 0 1.445.198 1.892.594.455.396.682.957.682 1.683 0 .726-.227 1.29-.682 1.694-.455.403-1.085.605-1.892.605h-2.167V8h-.902V.245zm2.981 3.828c1.18 0 1.771-.517 1.771-1.551 0-1.02-.59-1.529-1.771-1.529h-2.079v3.08h2.079zm8.353 1.936H39.91L39.053 8h-.924l3.41-7.755h.78L45.73 8h-.912l-.858-1.991zm-.32-.748L41.936 1.29 40.23 5.261h3.41zM46.88.245h.903V8h-.902V.245zM55.8 8h-.99l-1.32-2.486c-.161-.3-.352-.506-.572-.616-.212-.117-.506-.176-.88-.176h-1.452V8h-.89V.245h3.19c.843 0 1.484.187 1.924.561.448.374.671.924.671 1.65 0 .601-.172 1.089-.517 1.463-.337.367-.821.598-1.452.693.198.059.37.158.517.297.154.14.294.326.418.561L55.8 8zm-2.992-4.026c.602 0 1.049-.125 1.342-.374.301-.25.451-.627.451-1.133 0-.499-.146-.869-.44-1.111-.293-.242-.744-.363-1.353-.363h-2.222v2.981h2.222zM60.071.245h2.607c1.24 0 2.197.337 2.871 1.012.682.667 1.023 1.62 1.023 2.86 0 1.24-.34 2.196-1.023 2.871C64.875 7.663 63.918 8 62.68 8h-2.61V.245zm2.552 6.985c2.01 0 3.014-1.038 3.014-3.113 0-2.068-1.004-3.102-3.014-3.102h-1.65V7.23h1.65zm5.58-6.985h4.906v.748h-4.015v2.695h3.795v.748h-3.795v2.816h4.015V8h-4.906V.245zm8.759 7.843c-1.21 0-2.178-.326-2.904-.979l.352-.693c.381.323.77.554 1.166.693.403.14.869.209 1.397.209.623 0 1.104-.121 1.441-.363.337-.242.506-.583.506-1.023a.848.848 0 00-.242-.627 1.705 1.705 0 00-.638-.385 9.583 9.583 0 00-1.067-.297 10.652 10.652 0 01-1.485-.44 2.354 2.354 0 01-.935-.66c-.235-.286-.352-.66-.352-1.122 0-.44.114-.829.341-1.166a2.23 2.23 0 01.99-.792c.433-.19.931-.286 1.496-.286a4.33 4.33 0 011.496.253c.47.169.865.41 1.188.726l-.341.693a3.66 3.66 0 00-1.122-.682 3.315 3.315 0 00-1.221-.22c-.601 0-1.074.128-1.419.385-.337.25-.506.601-.506 1.056 0 .389.15.682.451.88.3.198.755.367 1.364.506a15.23 15.23 0 011.573.451c.381.132.697.334.946.605.257.271.385.634.385 1.089 0 .44-.117.825-.352 1.155-.227.33-.557.587-.99.77-.433.176-.939.264-1.518.264zM81.287.245h.902V8h-.902V.245zm8.953 3.718v3.586c-.308.161-.712.293-1.21.396-.492.095-.99.143-1.496.143-.77 0-1.434-.158-1.992-.473a3.173 3.173 0 01-1.287-1.364c-.293-.594-.44-1.305-.44-2.134 0-.821.147-1.529.44-2.123A3.125 3.125 0 0185.522.63c.55-.315 1.198-.473 1.947-.473a4.27 4.27 0 011.495.253 3.08 3.08 0 011.166.726l-.34.693c-.374-.323-.745-.554-1.112-.693a3.324 3.324 0 00-1.21-.209c-.872 0-1.543.275-2.013.825-.469.55-.703 1.338-.703 2.365 0 1.049.238 1.848.715 2.398.476.543 1.173.814 2.09.814.667 0 1.287-.099 1.859-.297V4.667H87.49v-.704h2.75zM98.277.245V8h-.694L92.91 1.763V8h-.848V.245h.693l4.675 6.237V.245h.847zm4.752 0h3.069c.814 0 1.445.198 1.892.594.455.396.682.957.682 1.683 0 .726-.227 1.29-.682 1.694-.454.403-1.085.605-1.892.605h-2.167V8h-.902V.245zm2.981 3.828c1.181 0 1.771-.517 1.771-1.551 0-1.02-.59-1.529-1.771-1.529h-2.079v3.08h2.079zM116.224 8h-.99l-1.32-2.486c-.161-.3-.352-.506-.572-.616-.213-.117-.506-.176-.88-.176h-1.452V8h-.891V.245h3.19c.843 0 1.485.187 1.925.561.447.374.671.924.671 1.65 0 .601-.172 1.089-.517 1.463-.337.367-.821.598-1.452.693.198.059.37.158.517.297.154.14.293.326.418.561L116.224 8zm-2.992-4.026c.601 0 1.049-.125 1.342-.374.301-.25.451-.627.451-1.133 0-.499-.147-.869-.44-1.111-.293-.242-.744-.363-1.353-.363h-2.222v2.981h2.222zm7.619 4.114c-.718 0-1.345-.161-1.881-.484a3.188 3.188 0 01-1.221-1.375c-.286-.594-.429-1.294-.429-2.101 0-.814.14-1.518.418-2.112.286-.601.693-1.06 1.221-1.375.536-.323 1.166-.484 1.892-.484s1.353.161 1.881.484c.536.315.943.774 1.221 1.375.286.594.429 1.294.429 2.101 0 .807-.143 1.51-.429 2.112a3.162 3.162 0 01-1.232 1.375c-.528.323-1.151.484-1.87.484zm0-.77c.822 0 1.46-.275 1.914-.825.462-.557.693-1.35.693-2.376 0-1.027-.227-1.815-.682-2.365-.454-.55-1.096-.825-1.925-.825-.821 0-1.463.279-1.925.836-.454.55-.682 1.335-.682 2.354 0 1.02.228 1.808.682 2.365.462.557 1.104.836 1.925.836zm3.767 0l.66-.044c.367-.03.649-.158.847-.385.205-.235.308-.554.308-.957V.245h.902v5.698c0 .638-.165 1.137-.495 1.496-.33.36-.81.557-1.441.594l-.715.044-.066-.759zm4.633-7.073h4.906v.748h-4.015v2.695h3.795v.748h-3.795v2.816h4.015V8h-4.906V.245zm9.67 7.843c-.733 0-1.371-.158-1.914-.473a3.221 3.221 0 01-1.254-1.375c-.286-.601-.429-1.309-.429-2.123 0-.814.143-1.518.429-2.112a3.152 3.152 0 011.254-1.364c.543-.323 1.181-.484 1.914-.484.536 0 1.027.084 1.474.253.448.161.836.403 1.166.726l-.341.693c-.374-.315-.74-.543-1.1-.682a3.258 3.258 0 00-1.188-.209c-.85 0-1.51.279-1.98.836-.462.55-.693 1.331-.693 2.343 0 1.02.231 1.808.693 2.365.47.55 1.13.825 1.98.825.433 0 .829-.07 1.188-.209.36-.14.726-.367 1.1-.682l.341.693c-.33.323-.718.568-1.166.737a4.312 4.312 0 01-1.474.242zm5.896-7.073h-2.695v-.77h6.314v.77h-2.706V8h-.913V1.015zm4.429-.77h1.056l-.22 3.047h-.594l-.242-3.047zm2.2 0h1.056l-.22 3.047h-.594l-.242-3.047z" fill="#E3B873"/></svg>